<svg width="57" height="56" viewBox="0 0 57 56" fill="none" xmlns="http://www.w3.org/2000/svg">
<g clip-path="url(#clip0_2471_7524)">
<path d="M4.16491 -0.0557735C4.32529 -0.0562782 4.48568 -0.0569734 4.64606 -0.0578417C5.08486 -0.0596623 5.52362 -0.058768 5.96243 -0.0574102C6.43639 -0.0564184 6.91035 -0.0579492 7.38431 -0.0591515C8.31202 -0.0610951 9.23971 -0.0606774 10.1674 -0.0594084C10.9214 -0.0584198 11.6754 -0.0582866 12.4294 -0.0587626C12.5368 -0.0588296 12.6442 -0.0588967 12.7548 -0.0589657C12.973 -0.0591056 13.1911 -0.0592475 13.4092 -0.0593913C15.4539 -0.0606383 17.4986 -0.0592052 19.5432 -0.0568536C21.2973 -0.0548987 23.0513 -0.0552388 24.8054 -0.0572555C26.843 -0.0595972 28.8806 -0.0605184 30.9181 -0.0591752C31.1354 -0.0590358 31.3527 -0.0588983 31.57 -0.0587626C31.677 -0.0586951 31.7839 -0.0586276 31.894 -0.0585581C32.6471 -0.0581805 33.4002 -0.0588176 34.1532 -0.0598474C35.071 -0.0610748 35.9888 -0.0607415 36.9066 -0.0584121C37.3747 -0.0572629 37.8429 -0.056811 38.3111 -0.0582586C38.7398 -0.0595642 39.1685 -0.0588426 39.5973 -0.0565184C39.7522 -0.0560305 39.9071 -0.0562764 40.0621 -0.0573391C40.9258 -0.0628081 41.5443 -0.0303076 42.2815 0.437282C42.3785 0.49819 42.4755 0.559098 42.5754 0.621852C43.2682 1.31467 43.4976 2.08375 43.5 3.03902C43.5005 3.15089 43.5005 3.15089 43.501 3.26501C43.5019 3.5148 43.5021 3.76458 43.5022 4.01437C43.5027 4.1935 43.5033 4.37264 43.5039 4.55177C43.5053 5.0383 43.506 5.52483 43.5065 6.01137C43.5068 6.31529 43.5073 6.61921 43.5078 6.92313C43.5093 7.87393 43.5103 8.82473 43.5107 9.77553C43.5112 10.8733 43.5131 11.9711 43.5163 13.069C43.5187 13.9175 43.5198 14.766 43.5199 15.6146C43.52 16.1214 43.5207 16.6283 43.5226 17.1351C43.5244 17.6117 43.5247 18.0883 43.5237 18.5649C43.5236 18.7399 43.5241 18.9148 43.5252 19.0897C43.5266 19.3285 43.5259 19.5672 43.5248 19.806C43.525 19.9397 43.5251 20.0733 43.5253 20.211C43.4808 20.5955 43.3843 20.7998 43.1565 21.1092C42.8661 21.3373 42.7116 21.3278 42.3362 21.3211C41.8683 21.1957 41.7713 21.0759 41.5159 20.6717C41.4609 20.3237 41.4609 20.3237 41.4606 19.9237C41.4599 19.8499 41.4592 19.776 41.4585 19.6999C41.4568 19.4532 41.4582 19.2066 41.4596 18.9599C41.459 18.7827 41.4582 18.6055 41.4573 18.4284C41.4556 18.0472 41.4553 17.6661 41.456 17.285C41.4572 16.6825 41.4553 16.08 41.453 15.4775C41.4497 14.5248 41.4484 13.572 41.448 12.6192C41.4473 10.9125 41.4441 9.20568 41.4387 7.49891C41.4369 6.89981 41.4363 6.30073 41.4367 5.70163C41.4367 5.32924 41.4359 4.95686 41.4349 4.58448C41.4346 4.41164 41.4346 4.2388 41.4351 4.06596C41.4357 3.83024 41.435 3.59456 41.434 3.35884C41.434 3.22687 41.4339 3.0949 41.4339 2.95893C41.4074 2.63632 41.3674 2.45339 41.1877 2.18728C40.8962 2.0415 40.6752 2.06392 40.3485 2.06353C40.2157 2.06311 40.0829 2.06269 39.9461 2.06226C39.7973 2.06234 39.6486 2.06244 39.4999 2.06255C39.3429 2.06226 39.186 2.06193 39.029 2.06156C38.5962 2.06068 38.1633 2.06048 37.7305 2.0604C37.2643 2.0602 36.7981 2.05937 36.3319 2.05864C35.3118 2.05715 34.2917 2.05649 33.2717 2.05601C32.6352 2.05571 31.9988 2.05525 31.3623 2.05475C29.6015 2.05342 27.8407 2.05229 26.0798 2.05192C25.9671 2.0519 25.8543 2.05187 25.7381 2.05185C25.5686 2.05181 25.5686 2.05181 25.3956 2.05178C25.1666 2.05173 24.9375 2.05168 24.7084 2.05163C24.538 2.05159 24.538 2.05159 24.3641 2.05156C22.5219 2.05113 20.6797 2.04922 18.8375 2.04667C16.9478 2.04408 15.0582 2.04271 13.1685 2.04259C12.1068 2.04249 11.0452 2.04185 9.98351 2.03987C9.07971 2.03819 8.17592 2.03762 7.27212 2.03853C6.81066 2.03896 6.34921 2.03885 5.88775 2.03732C5.46575 2.03594 5.04378 2.03605 4.62178 2.03739C4.46868 2.0376 4.31559 2.03726 4.16249 2.03631C3.95523 2.03511 3.74795 2.0361 3.54068 2.03723C3.4253 2.03716 3.30992 2.0371 3.19104 2.03703C2.90999 2.05973 2.90999 2.05973 2.70536 2.19208C2.50683 2.52652 2.53349 2.8671 2.53706 3.2449C2.53659 3.33161 2.53611 3.41831 2.53562 3.50764C2.53441 3.80063 2.53556 4.09357 2.53669 4.38656C2.53631 4.59775 2.53579 4.80893 2.53514 5.02012C2.53376 5.60237 2.53445 6.1846 2.53546 6.76685C2.5362 7.39403 2.53506 8.02121 2.53415 8.64839C2.53269 9.87779 2.53301 11.1072 2.53396 12.3366C2.5347 13.3354 2.5348 14.3342 2.53445 15.333C2.5344 15.4749 2.53435 15.6168 2.53429 15.763C2.53419 16.0513 2.53408 16.3396 2.53397 16.6279C2.53306 19.2565 2.53401 21.8852 2.53573 24.5139C2.53728 26.915 2.53715 29.3161 2.53558 31.7171C2.53382 34.4131 2.53313 37.109 2.53414 39.8049C2.53424 40.0921 2.53434 40.3794 2.53445 40.6666C2.5345 40.808 2.53455 40.9493 2.5346 41.0949C2.53488 42.093 2.5344 43.0911 2.53363 44.0892C2.53271 45.3048 2.53296 46.5204 2.53471 47.736C2.53557 48.3567 2.5359 48.9775 2.53482 49.5982C2.53385 50.1657 2.53438 50.7332 2.53613 51.3007C2.5365 51.5067 2.5363 51.7127 2.53551 51.9187C2.53452 52.1974 2.53553 52.476 2.53706 52.7547C2.53629 52.8358 2.53553 52.917 2.53473 53.0006C2.53815 53.308 2.5464 53.5397 2.70538 53.8074C2.99168 53.97 3.21156 53.9628 3.54037 53.9629C3.67341 53.9638 3.80645 53.9647 3.94352 53.9655C4.09192 53.9648 4.24033 53.9641 4.38873 53.9633C4.54578 53.9637 4.70283 53.9642 4.85988 53.9649C5.29248 53.9663 5.72507 53.9656 6.15767 53.9646C6.62381 53.9638 7.08994 53.965 7.55608 53.9659C8.46965 53.9673 9.38321 53.967 10.2968 53.966C11.039 53.9653 11.7813 53.9652 12.5235 53.9656C12.629 53.9656 12.7345 53.9657 12.8432 53.9657C13.0575 53.9658 13.2718 53.9659 13.4861 53.966C15.4972 53.967 17.5083 53.9659 19.5194 53.9641C21.2463 53.9627 22.9733 53.9629 24.7002 53.9644C26.7039 53.9662 28.7077 53.9669 30.7114 53.9659C30.9249 53.9658 31.1384 53.9657 31.3519 53.9656C31.5095 53.9655 31.5095 53.9655 31.6703 53.9654C32.412 53.9651 33.1536 53.9656 33.8953 53.9664C34.7987 53.9673 35.7021 53.9671 36.6055 53.9653C37.0667 53.9644 37.5279 53.9641 37.9892 53.9652C38.411 53.9662 38.8327 53.9656 39.2545 53.9639C39.4076 53.9635 39.5606 53.9637 39.7136 53.9645C39.9207 53.9655 40.1279 53.9643 40.3351 53.9629C40.4504 53.9629 40.5657 53.9628 40.6845 53.9628C41.0096 53.9158 41.1031 53.8524 41.2971 53.5935C41.475 53.2377 41.4222 52.846 41.422 52.455C41.4224 52.3598 41.4228 52.2647 41.4231 52.1666C41.424 51.9595 41.4245 51.7524 41.4249 51.5453C41.4257 51.2176 41.4274 50.8898 41.4295 50.5621C41.4352 49.6301 41.4404 48.698 41.4421 47.766C41.4432 47.1962 41.4464 46.6265 41.451 46.0568C41.4524 45.8396 41.4529 45.6224 41.4527 45.4052C41.4524 45.1012 41.4549 44.7973 41.4579 44.4933C41.4572 44.4035 41.4564 44.3138 41.4557 44.2213C41.4627 43.7945 41.4878 43.5772 41.7147 43.2043C42.0453 42.8993 42.2739 42.8748 42.719 42.8748C43.0208 43.0022 43.1975 43.1074 43.3883 43.3741C43.5338 43.7764 43.5159 44.1774 43.5146 44.5999C43.5155 44.7451 43.5155 44.7451 43.5163 44.8932C43.5179 45.2133 43.5178 45.5334 43.5175 45.8535C43.5179 46.0764 43.5184 46.2993 43.5189 46.5222C43.5197 46.9896 43.5197 47.4571 43.5191 47.9245C43.5185 48.5223 43.5203 49.12 43.5229 49.7178C43.5245 50.1783 43.5246 50.6388 43.5243 51.0993C43.5243 51.3196 43.5249 51.5399 43.526 51.7602C43.5273 52.0691 43.5266 52.3779 43.5253 52.6868C43.5262 52.7771 43.527 52.8673 43.5279 52.9603C43.5191 53.9353 43.1828 54.7507 42.5002 55.4529C41.6577 56.0586 40.81 56.0774 39.806 56.0678C39.6455 56.0682 39.4849 56.0689 39.3244 56.0699C38.8856 56.0717 38.4469 56.0702 38.0081 56.0681C37.534 56.0664 37.0599 56.0678 36.5858 56.0689C35.6581 56.0705 34.7304 56.0692 33.8026 56.0668C32.722 56.0642 31.6414 56.0644 30.5608 56.0647C28.6328 56.0651 26.7048 56.0628 24.7769 56.0591C22.9063 56.0554 21.0358 56.0539 19.1652 56.0546C17.1274 56.0553 15.0897 56.055 13.052 56.0529C12.8903 56.0527 12.8903 56.0527 12.7254 56.0526C12.509 56.0523 12.2926 56.0521 12.0762 56.0519C11.3231 56.0511 10.5699 56.051 9.81668 56.0512C8.89903 56.0513 7.98138 56.0503 7.06372 56.0477C6.59556 56.0464 6.12741 56.0456 5.65924 56.0463C5.23064 56.0468 4.80207 56.0459 4.37347 56.0437C4.21848 56.0432 4.06349 56.0432 3.9085 56.0439C2.71154 56.0483 2.02066 55.9206 1.127 55.0996C0.523419 54.4824 0.483899 53.8869 0.485854 53.0603C0.48563 52.9725 0.485405 52.8847 0.485174 52.7942C0.484552 52.4981 0.484713 52.2021 0.484868 51.906C0.484586 51.6923 0.484256 51.4787 0.483884 51.265C0.483 50.6763 0.482805 50.0877 0.482724 49.4991C0.482522 48.8648 0.481697 48.2305 0.48096 47.5963C0.479473 46.2088 0.478815 44.8213 0.478333 43.4338C0.478032 42.5678 0.477568 41.7019 0.477075 40.8359C0.475741 38.4395 0.474611 36.0431 0.474245 33.6466C0.474221 33.4917 0.474197 33.3367 0.474172 33.1817C0.474148 33.0264 0.474124 32.871 0.4741 32.7157C0.474051 32.404 0.474003 32.0923 0.473953 31.7807C0.473941 31.7034 0.473929 31.6261 0.473917 31.5465C0.47352 29.0403 0.471778 26.534 0.469229 24.0278C0.46654 21.3785 0.465039 18.7291 0.464908 16.0798C0.464807 14.6355 0.464176 13.1911 0.462193 11.7467C0.460511 10.517 0.459947 9.28735 0.460852 8.05765C0.46128 7.43 0.461173 6.80237 0.459643 6.17472C0.458255 5.60037 0.458375 5.02605 0.459707 4.4517C0.459922 4.2437 0.45958 4.0357 0.458631 3.82769C0.457423 3.54529 0.458233 3.26296 0.459548 2.98056C0.458718 2.89952 0.457887 2.81848 0.457031 2.73498C0.464479 1.99622 0.688711 1.41828 1.17015 0.854274C1.22683 0.785047 1.28351 0.715821 1.3419 0.644496C2.19408 -0.056022 3.10266 -0.0630722 4.16491 -0.0557735Z" fill="white"/>
<path d="M55.3998 11.6139C56.0595 12.1168 56.4276 12.7757 56.5564 13.5916C56.6077 14.6321 56.3083 15.3872 55.8438 16.297C55.925 16.3849 55.925 16.3849 56.0078 16.4747C56.2261 16.8203 56.2286 16.9855 56.1719 17.3907C56.0414 17.7053 55.8734 17.9933 55.7002 18.2862C55.6519 18.3704 55.6037 18.4545 55.5539 18.5412C55.3966 18.8147 55.2374 19.0871 55.0781 19.3595C54.9645 19.5563 54.851 19.7533 54.7376 19.9503C54.4515 20.4469 54.1638 20.9426 53.875 21.4376C54.1583 21.6693 54.4252 21.877 54.7432 22.0596C55.3485 22.5168 55.795 23.184 55.9309 23.9391C56.0551 25.2412 55.4959 26.1449 54.8594 27.2345C54.8175 27.3069 54.7755 27.3793 54.7323 27.4539C54.5178 27.8238 54.3004 28.192 54.0814 28.5593C53.8337 28.976 53.5916 29.3957 53.3508 29.8163C53.3146 29.8795 53.2784 29.9427 53.2411 30.0077C53.0606 30.3228 52.8804 30.638 52.7009 30.9536C51.7463 32.6191 51.7463 32.6191 51.3594 32.8126C50.9235 32.8537 50.6675 32.8527 50.2793 32.6417C49.9745 32.2921 49.961 32.0693 49.9375 31.6095C50.0583 31.281 50.0583 31.281 50.2473 30.9541C50.316 30.8328 50.3848 30.7115 50.4557 30.5866C50.5313 30.4581 50.6069 30.3297 50.6826 30.2012C50.7591 30.0682 50.8354 29.9351 50.9115 29.8018C51.1312 29.4185 51.3545 29.0374 51.5781 28.6563C51.683 28.4758 51.7878 28.2952 51.8926 28.1146C52.2479 27.505 52.6088 26.8993 52.9778 26.2979C53.0284 26.2145 53.0789 26.131 53.131 26.0451C53.2272 25.8864 53.3244 25.7284 53.4229 25.5711C53.7026 25.1078 53.8587 24.7265 53.875 24.172C53.5458 23.733 53.1689 23.5166 52.6719 23.297C52.6452 23.3889 52.6186 23.4808 52.5911 23.5755C52.4369 23.9977 52.2278 24.3642 51.9951 24.7462C51.8957 24.9123 51.7965 25.0785 51.6973 25.2448C51.6432 25.3354 51.589 25.426 51.5332 25.5194C51.2107 26.0633 50.8957 26.6114 50.5801 27.1593C50.4761 27.3396 50.4761 27.3396 50.37 27.5235C49.8195 28.4793 49.2726 29.4373 48.7262 30.3954C48.1596 31.3884 47.5882 32.3784 47.0088 33.3639C46.6738 33.9344 46.345 34.5074 46.0235 35.0855C45.3195 36.345 44.6256 37.4932 43.6389 38.5476C43.3652 38.8508 43.1183 39.1748 42.8691 39.4981C42.4988 39.9776 42.1179 40.4417 41.7207 40.8995C41.2592 41.4454 40.892 42.0158 40.5455 42.6386C40.1378 43.3605 39.5747 43.9855 38.774 44.267C38.1622 44.4267 37.6531 44.3957 37.0313 44.297C37.001 44.3615 36.9707 44.426 36.9395 44.4925C36.8197 44.7208 36.6921 44.9049 36.5309 45.1053C36.4763 45.1735 36.4217 45.2417 36.3654 45.312C36.3077 45.3831 36.2499 45.4542 36.1904 45.5274C36.1313 45.6006 36.0721 45.6737 36.0111 45.7491C35.8414 45.9582 35.6708 46.1668 35.5 46.3751C35.4229 46.4697 35.3458 46.5643 35.2663 46.6618C34.4488 47.6336 34.4488 47.6336 33.7966 47.7286C33.0998 47.759 32.6664 47.6707 32.1094 47.2501C31.6481 46.802 31.4271 46.2142 31.2344 45.6095C31.2344 45.5012 31.2344 45.3929 31.2344 45.2813C31.1622 45.2813 31.09 45.2813 31.0156 45.2813C30.9908 45.3422 30.966 45.4031 30.9404 45.4659C30.5985 46.0683 30.1423 46.3965 29.4844 46.5938C28.824 46.6226 28.357 46.4767 27.8438 46.047C27.0852 45.3095 27.1404 44.1414 27.0713 43.1485C27.0545 42.9126 27.0373 42.6768 27.0196 42.441C27.0124 42.3379 27.0052 42.2347 26.9978 42.1285C26.9939 41.8933 26.9939 41.8933 26.8594 41.7813C26.8346 41.8582 26.8097 41.9351 26.7842 42.0143C26.5494 42.7406 26.313 43.4664 26.0748 44.1916C25.9525 44.5644 25.8307 44.9374 25.7104 45.3108C25.5941 45.6716 25.4762 46.0318 25.3572 46.3916C25.2904 46.5951 25.2252 46.7992 25.1601 47.0032C24.7666 48.1845 24.7666 48.1845 24.2344 48.5626C23.7791 48.6357 23.5562 48.612 23.1543 48.3848C22.8616 48.0577 22.8383 47.9063 22.8125 47.4688C22.8802 47.1279 22.9898 46.8045 23.1022 46.4759C23.1494 46.3321 23.1494 46.3321 23.1976 46.1854C23.3002 45.8744 23.4048 45.5642 23.5098 45.254C23.581 45.0408 23.6521 44.8276 23.7232 44.6143C23.8642 44.1921 24.006 43.7702 24.1484 43.3485C24.2932 42.9187 24.4341 42.4879 24.5714 42.0557C24.6738 41.7335 24.7791 41.4123 24.8838 41.0909C24.9356 40.9232 24.9356 40.9232 24.9884 40.7522C25.2563 39.9509 25.6291 39.5213 26.3672 39.1153C27.0167 38.9529 27.5033 39.0257 28.0779 39.3486C28.5051 39.634 28.753 39.8951 28.902 40.3825C29.1345 41.5927 29.1731 42.8513 29.2656 44.0782C29.3501 43.9932 29.4345 43.9082 29.5215 43.8206C30.0409 43.3043 30.3842 43.0657 31.125 43.0391C31.6848 43.0592 32.0154 43.1409 32.4375 43.5313C32.7917 43.9337 33.0131 44.3343 33.2305 44.8233C33.3159 45.0139 33.3159 45.0139 33.4031 45.2083C33.4454 45.3046 33.4877 45.4009 33.5313 45.5001C33.583 45.4351 33.6347 45.3701 33.6881 45.3031C33.7604 45.2125 33.8327 45.1218 33.9072 45.0284C34.0246 44.8782 34.0246 44.8782 34.1443 44.7251C34.4063 44.4063 34.4063 44.4063 34.6989 44.1081C34.9771 43.8152 35.2038 43.5619 35.3906 43.2032C35.3504 42.8484 35.2425 42.5999 35.0864 42.2799C34.7784 41.6332 34.9595 41.0439 35.1818 40.3962C35.3312 40.0123 35.5306 39.6654 35.7354 39.3089C36.3057 38.2729 36.6886 37.1849 37.0811 36.0723C37.81 34.0195 38.6111 32.1508 39.7739 30.307C40.136 29.7252 40.4718 29.1284 40.8115 28.5333C40.947 28.2985 41.0825 28.0638 41.2183 27.8292C41.492 27.3554 41.7655 26.8814 42.0386 26.4073C42.7687 25.14 43.5021 23.8748 44.2403 22.6122C44.8708 21.5323 45.4913 20.4466 46.1094 19.3595C46.0253 19.3279 45.9413 19.2963 45.8547 19.2637C45.4549 19.0954 45.104 18.88 44.9063 18.4844C44.8611 17.9761 44.9292 17.6921 45.2344 17.2813C45.5766 17.1102 45.8389 17.1413 46.2188 17.172C46.5248 17.2943 46.8091 17.4438 47.0938 17.6095C47.5145 16.9358 47.9284 16.2592 48.3281 15.5728C48.3906 15.4657 48.4531 15.3586 48.5175 15.2483C48.6425 15.0337 48.767 14.8188 48.8908 14.6035C48.9492 14.5035 49.0075 14.4035 49.0676 14.3004C49.1193 14.211 49.171 14.1215 49.2243 14.0293C49.5153 13.5954 49.7064 13.3711 50.2246 13.255C50.5938 13.2345 50.5938 13.2345 50.8125 13.3438C50.8463 13.2355 50.8463 13.2355 50.8809 13.1251C51.2706 12.2748 51.8443 11.7006 52.6719 11.2657C53.5815 10.9697 54.5917 11.1212 55.3998 11.6139ZM53.1367 13.3028C52.7948 13.6637 52.5625 13.9299 52.5625 14.4376C52.7529 14.5509 52.9446 14.6621 53.1367 14.7725C53.2966 14.8658 53.2966 14.8658 53.4597 14.961C53.7479 15.1139 53.7479 15.1139 54.0117 15.0776C54.3403 14.9177 54.4065 14.6587 54.5313 14.3282C54.575 13.9635 54.5683 13.7526 54.415 13.419C54.0072 13.0638 53.5968 13.0309 53.1367 13.3028ZM50.5938 15.6407C50.5635 15.6958 50.5332 15.7508 50.502 15.8075C50.362 16.062 50.2215 16.3162 50.0811 16.5704C50.0097 16.7002 50.0097 16.7002 49.9369 16.8327C49.6595 17.3341 49.371 17.8211 49.0523 18.2975C48.9275 18.4975 48.9275 18.4975 48.9531 18.8126C49.3342 19.0293 49.7156 19.2454 50.0973 19.4608C50.2271 19.5341 50.3567 19.6076 50.4862 19.6814C50.6728 19.7875 50.8597 19.8928 51.0466 19.9982C51.1589 20.0618 51.2712 20.1253 51.3868 20.1908C51.6398 20.3196 51.848 20.4019 52.125 20.4532C52.1704 20.3706 52.1704 20.3706 52.2167 20.2864C52.3568 20.0319 52.4972 19.7777 52.6377 19.5235C52.6853 19.4369 52.7329 19.3504 52.7819 19.2612C53.0593 18.7598 53.3477 18.2728 53.6664 17.7964C53.7913 17.5964 53.7913 17.5964 53.7656 17.2813C53.7106 17.2511 53.6555 17.2208 53.5988 17.1896C53.3444 17.0495 53.0902 16.9091 52.8359 16.7686C52.7494 16.721 52.6628 16.6735 52.5736 16.6244C52.0722 16.347 51.5852 16.0586 51.1088 15.7399C50.9088 15.6151 50.9088 15.6151 50.5938 15.6407ZM47.8594 20.4532C47.7089 20.6578 47.7089 20.6578 47.5607 20.9274C47.5008 21.0312 47.4409 21.1349 47.3792 21.2418C47.2819 21.4132 47.2819 21.4132 47.1826 21.588C47.1147 21.706 47.0468 21.824 46.9769 21.9456C46.8327 22.1964 46.6888 22.4472 46.5454 22.6984C46.2711 23.1784 45.9942 23.6569 45.7175 24.1355C45.4426 24.611 45.1685 25.087 44.8943 25.563C44.5522 26.1567 44.2097 26.7503 43.8672 27.3438C43.7315 27.5791 43.5957 27.8144 43.46 28.0496C43.2133 28.4773 42.9665 28.905 42.7196 29.3325C41.6215 31.2344 41.6215 31.2344 40.5313 33.1407C40.8443 33.4786 41.1533 33.7063 41.5541 33.932C41.6652 33.9947 41.7763 34.0574 41.8907 34.1221C42.0061 34.1862 42.1214 34.2504 42.2402 34.3165C42.4145 34.4152 42.4145 34.4152 42.5923 34.516C43.1179 34.8562 43.1179 34.8562 43.7031 35.0001C43.7481 34.9211 43.7931 34.842 43.8395 34.7606C44.6267 33.3786 45.415 31.9975 46.2188 30.6251C46.7718 29.6806 47.3175 28.7322 47.8594 27.7813C48.5937 26.4927 49.3375 25.2099 50.0871 23.9301C50.4024 23.3913 50.7168 22.8519 51.0313 22.3126C50.4764 21.8536 49.8802 21.5007 49.2607 21.1368C49.095 21.038 49.095 21.038 48.926 20.9373C48.7679 20.844 48.7679 20.844 48.6066 20.7489C48.5104 20.6921 48.4143 20.6353 48.3152 20.5768C48.0904 20.4363 48.0904 20.4363 47.8594 20.4532ZM39.6563 35.1095C39.3387 35.8513 39.0355 36.598 38.7471 37.3516C38.7179 37.4262 38.6888 37.5008 38.6588 37.5777C38.5179 37.9499 38.4531 38.2054 38.4531 38.6095C38.6981 38.7621 38.9441 38.9119 39.1914 39.0606C39.2608 39.1042 39.3301 39.1478 39.4016 39.1926C39.7874 39.4341 39.7874 39.4341 40.2245 39.4349C40.4745 39.2206 40.6694 38.9917 40.873 38.7325C41.0002 38.5728 41.0002 38.5728 41.1298 38.4099C41.1967 38.3255 41.1967 38.3255 41.2649 38.2393C41.5101 37.9327 41.7626 37.6322 42.0147 37.3311C42.1082 37.2191 42.2018 37.107 42.2954 36.9949C42.3629 36.9141 42.4304 36.8333 42.5 36.7501C42.0242 36.3369 41.505 36.0458 40.9551 35.7452C40.8664 35.6959 40.7777 35.6466 40.6863 35.5959C40.3438 35.4071 40.0282 35.2334 39.6563 35.1095ZM37.5781 40.3595C37.2359 40.779 37.0313 41.1024 37.0313 41.6514C37.1559 42.0645 37.1559 42.0645 37.4688 42.3282C37.81 42.4539 37.9577 42.4616 38.2959 42.3214C38.6167 42.0664 38.7996 41.8094 39 41.4532C39 41.3449 39 41.2366 39 41.1251C38.7101 40.9134 38.7101 40.9134 38.3506 40.7218C38.23 40.6537 38.1095 40.5856 37.9853 40.5154C37.7274 40.351 37.7274 40.351 37.5781 40.3595Z" fill="white"/>
<path d="M10.4552 5.54797C10.5574 5.5474 10.6596 5.54683 10.7648 5.54624C11.1087 5.54459 11.4525 5.54452 11.7964 5.54445C12.0423 5.54361 12.2882 5.54269 12.5341 5.54169C13.2033 5.53928 13.8724 5.53832 14.5415 5.53777C14.9593 5.53737 15.377 5.53669 15.7948 5.53591C16.9513 5.53378 18.1078 5.53198 19.2643 5.53166C19.3753 5.53163 19.3753 5.53163 19.4886 5.5316C19.6386 5.53156 19.7887 5.53152 19.9387 5.53148C20.0132 5.53146 20.0877 5.53144 20.1645 5.53142C20.239 5.5314 20.3136 5.53138 20.3904 5.53136C21.5992 5.53097 22.8078 5.52801 24.0165 5.52392C25.2573 5.51976 26.4981 5.51769 27.7389 5.51761C28.4356 5.51752 29.1323 5.51656 29.8291 5.51345C30.4843 5.5106 31.1394 5.51034 31.7946 5.5121C32.0353 5.5123 32.276 5.51156 32.5167 5.50982C32.8448 5.5076 33.1728 5.50873 33.501 5.51072C33.5966 5.50928 33.6923 5.50784 33.7908 5.50635C34.2661 5.51295 34.4587 5.53472 34.8484 5.83167C35.0623 6.12483 35.0623 6.12483 35.1238 6.50765C35.0531 6.9477 34.942 7.12923 34.6248 7.43733C34.2025 7.57809 33.8045 7.56141 33.3645 7.55986C33.2682 7.55995 33.1719 7.56005 33.0726 7.56014C32.7487 7.56033 32.4247 7.55972 32.1008 7.55913C31.8691 7.55909 31.6373 7.55911 31.4056 7.55917C30.7754 7.55921 30.1452 7.55856 29.5149 7.5578C28.8567 7.55712 28.1985 7.55705 27.5403 7.55692C26.2934 7.55658 25.0465 7.55568 23.7996 7.55459C22.3803 7.55336 20.9609 7.55276 19.5416 7.55221C16.6214 7.55107 13.7012 7.54914 10.7811 7.54671C10.7811 8.12421 10.7811 8.70171 10.7811 9.29671C10.9631 9.29641 10.9631 9.29641 11.1488 9.2961C14.099 9.29125 17.0492 9.28765 19.9994 9.28537C21.426 9.28425 22.8527 9.28271 24.2794 9.28021C25.5226 9.27803 26.7658 9.27662 28.009 9.27613C28.6675 9.27584 29.326 9.27517 29.9846 9.27358C30.604 9.2721 31.2234 9.27164 31.8428 9.27197C32.0705 9.27191 32.2982 9.27147 32.5259 9.27063C32.8361 9.26955 33.1463 9.2698 33.4566 9.2704C33.5472 9.26977 33.6379 9.26913 33.7313 9.26847C34.5158 9.27258 34.5158 9.27258 34.8436 9.51546C35.111 9.91663 35.1413 10.252 35.0623 10.7186C34.8578 10.9845 34.7034 11.1168 34.4061 11.2655C34.0835 11.2767 33.7635 11.2811 33.4409 11.2808C33.2891 11.2813 33.2891 11.2813 33.1342 11.2818C32.7931 11.2828 32.4519 11.2829 32.1108 11.2831C31.867 11.2836 31.6233 11.2841 31.3795 11.2847C30.7158 11.2862 30.0521 11.2869 29.3884 11.2874C28.9741 11.2877 28.5597 11.2881 28.1454 11.2886C26.9986 11.2899 25.8517 11.2911 24.7049 11.2914C24.6315 11.2915 24.558 11.2915 24.4824 11.2915C24.372 11.2916 24.372 11.2916 24.2593 11.2916C24.1102 11.2916 23.961 11.2917 23.8119 11.2917C23.7379 11.2918 23.6639 11.2918 23.5877 11.2918C22.3889 11.2922 21.1901 11.2941 19.9913 11.2967C18.7609 11.2993 17.5305 11.3006 16.3001 11.3008C15.6091 11.3009 14.9181 11.3015 14.2271 11.3035C13.5773 11.3053 12.9274 11.3055 12.2775 11.3046C12.0388 11.3045 11.8 11.305 11.5613 11.306C11.2358 11.3074 10.9103 11.3068 10.5848 11.3057C10.4425 11.307 10.4425 11.307 10.2973 11.3083C9.78557 11.3041 9.4461 11.271 9.03107 10.9373C8.75708 10.4794 8.7788 9.99024 8.77942 9.47102C8.77895 9.38327 8.77848 9.29552 8.778 9.2051C8.77737 9.02015 8.77732 8.83519 8.77779 8.65023C8.77814 8.36794 8.77557 8.08576 8.7728 7.80348C8.77255 7.62333 8.77247 7.44317 8.77258 7.26302C8.77158 7.17903 8.77057 7.09505 8.76953 7.00853C8.7738 6.51176 8.82922 6.18922 9.14044 5.79671C9.57481 5.50713 9.95092 5.54659 10.4552 5.54797Z" fill="white"/>
<path d="M16.9884 37.9325C17.2749 38.2111 17.3343 38.3039 17.3781 38.6982C17.3361 39.1267 17.2025 39.2888 16.9064 39.5937C16.5772 39.7583 16.4023 39.7494 16.0314 39.7031C15.8662 39.611 15.7047 39.5121 15.5461 39.4091C14.1452 38.5201 12.5431 38.2287 10.9156 38.5239C9.48824 38.8695 8.11766 39.6749 7.28141 40.9062C6.65418 42.0016 6.25326 42.9936 6.25602 44.2626C6.2562 44.3481 6.25637 44.4336 6.25655 44.5217C6.27282 45.3006 6.43954 45.9809 6.73453 46.7031C6.78191 46.8234 6.78191 46.8234 6.83024 46.9462C7.41632 48.2622 8.51424 49.2215 9.80857 49.8108C11.3532 50.3904 13.0853 50.4288 14.6095 49.7656C16.1228 49.0264 17.1984 47.851 17.8002 46.275C17.949 45.7204 18.0215 45.1513 18.0861 44.5811C18.139 44.1683 18.1718 43.9212 18.4283 43.5846C18.7341 43.3664 18.937 43.3199 19.3127 43.3124C19.6908 43.4433 19.9062 43.5237 20.0984 43.8819C20.5267 45.3472 19.797 47.0873 19.1123 48.3689C18.1336 50.1175 16.5061 51.4023 14.6027 52.0009C12.4548 52.6049 10.1573 52.4186 8.1974 51.3337C6.24684 50.187 4.94431 48.4291 4.33512 46.2587C3.89377 44.0216 4.26196 41.8766 5.42203 39.9218C6.65413 38.098 8.44307 36.9526 10.5669 36.453C12.7813 36.0326 15.2134 36.5075 16.9884 37.9325Z" fill="white"/>
<path d="M16.7856 19.5227C16.8732 19.522 16.9608 19.5213 17.0511 19.5206C17.345 19.5189 17.6388 19.5203 17.9327 19.5217C18.1432 19.5211 18.3538 19.5203 18.5644 19.5193C19.1365 19.5173 19.7087 19.5181 20.2809 19.5195C20.8792 19.5206 21.4775 19.5196 22.0757 19.5189C23.0805 19.5181 24.0853 19.5191 25.0901 19.5212C26.2524 19.5236 27.4147 19.5228 28.5771 19.5204C29.5743 19.5184 30.5716 19.5182 31.5688 19.5193C32.1647 19.52 32.7606 19.5201 33.3565 19.5186C33.9167 19.5174 34.4769 19.5182 35.0371 19.5208C35.2429 19.5214 35.4487 19.5212 35.6546 19.5202C35.9351 19.519 36.2155 19.5205 36.496 19.5227C36.6188 19.5212 36.6188 19.5212 36.744 19.5198C37.1193 19.5254 37.3233 19.5507 37.6259 19.7808C37.8511 20.0899 37.8988 20.2896 37.9064 20.672C37.7844 21.006 37.6948 21.2457 37.4001 21.4547C37.0335 21.5853 36.6789 21.5775 36.2946 21.5755C36.2089 21.576 36.1232 21.5764 36.0348 21.5768C35.7472 21.5779 35.4597 21.5775 35.1721 21.5771C34.966 21.5775 34.76 21.5781 34.5539 21.5788C33.9939 21.5802 33.4339 21.5803 32.874 21.58C32.4067 21.5799 31.9395 21.5804 31.4722 21.5809C30.37 21.5822 29.2679 21.5822 28.1657 21.5815C27.0281 21.5809 25.8905 21.5822 24.7529 21.5846C23.7767 21.5865 22.8004 21.5871 21.8242 21.5868C21.2409 21.5866 20.6576 21.5869 20.0744 21.5884C19.5259 21.5898 18.9775 21.5896 18.4291 21.5881C18.2277 21.5879 18.0264 21.5882 17.825 21.5891C17.5503 21.5902 17.2756 21.5893 17.0009 21.5879C16.8812 21.5892 16.8812 21.5892 16.759 21.5904C16.2786 21.5853 15.9782 21.5099 15.5939 21.2189C15.3641 20.9264 15.3754 20.7767 15.3889 20.3986C15.5881 19.6017 16.0302 19.5137 16.7856 19.5227Z" fill="white"/>
<path d="M8.38096 25.1268C8.45991 25.1263 8.53886 25.1258 8.6202 25.1253C8.88545 25.1239 9.15068 25.1241 9.41593 25.1243C9.60582 25.1236 9.79571 25.1229 9.9856 25.1221C10.502 25.1201 11.0183 25.1196 11.5347 25.1195C11.9655 25.1193 12.3963 25.1185 12.8272 25.1177C13.8435 25.1159 14.8598 25.1154 15.8762 25.1155C16.9251 25.1157 17.974 25.1133 19.0229 25.1099C19.923 25.107 20.8231 25.1059 21.7232 25.106C22.261 25.1061 22.7987 25.1054 23.3365 25.1031C23.8423 25.101 24.3481 25.101 24.8539 25.1026C25.0396 25.1028 25.2252 25.1023 25.4109 25.101C25.6643 25.0993 25.9176 25.1003 26.1711 25.102C26.3838 25.1018 26.3838 25.1018 26.6009 25.1016C27.0343 25.1656 27.2146 25.2805 27.5165 25.5936C27.6421 26.0255 27.673 26.253 27.4891 26.6668C27.2977 26.9061 27.2977 26.9061 26.9696 27.1248C26.6284 27.1529 26.6284 27.1529 26.1989 27.1541C26.0804 27.1548 26.0804 27.1548 25.9596 27.1556C25.6944 27.1569 25.4292 27.1568 25.1639 27.1566C24.974 27.1572 24.7841 27.158 24.5942 27.1588C24.0779 27.1607 23.5615 27.1613 23.0451 27.1614C22.6143 27.1616 22.1835 27.1624 21.7527 27.1632C20.7363 27.165 19.72 27.1655 18.7037 27.1653C17.6547 27.1652 16.6058 27.1675 15.5569 27.171C14.6568 27.1738 13.7567 27.175 12.8566 27.1749C12.3189 27.1748 11.7811 27.1754 11.2433 27.1778C10.7375 27.1799 10.2317 27.1799 9.72594 27.1783C9.54028 27.1781 9.3546 27.1786 9.16894 27.1799C8.91549 27.1816 8.66219 27.1806 8.40874 27.1789C8.19599 27.1791 8.19599 27.1791 7.97894 27.1793C7.54549 27.1153 7.36526 27.0004 7.06335 26.6873C6.93769 26.2554 6.9068 26.0278 7.09069 25.6141C7.48007 25.1273 7.78638 25.1283 8.38096 25.1268Z" fill="white"/>
<path d="M13.0659 13.0001C13.1443 12.9998 13.2227 12.9995 13.3035 12.9992C13.5676 12.9982 13.8317 12.998 14.0957 12.9979C14.2845 12.9974 14.4733 12.9968 14.6621 12.9962C15.176 12.9948 15.6899 12.9941 16.2038 12.9936C16.5247 12.9933 16.8456 12.9928 17.1664 12.9923C18.1699 12.9908 19.1734 12.9898 20.1769 12.9894C21.3362 12.9889 22.4954 12.987 23.6547 12.9838C24.5502 12.9814 25.4456 12.9803 26.341 12.9802C26.8761 12.9801 27.4112 12.9794 27.9463 12.9775C28.4497 12.9757 28.953 12.9754 29.4564 12.9764C29.6412 12.9765 29.826 12.976 30.0108 12.9749C30.263 12.9735 30.5152 12.9742 30.7674 12.9753C30.9086 12.9751 31.0497 12.975 31.1952 12.9748C31.5924 13.0188 31.797 13.0977 32.1094 13.3436C32.3127 13.7926 32.366 14.0036 32.1982 14.4716C32 14.7655 32 14.7655 31.6719 14.9842C31.3304 15.0118 31.3304 15.0118 30.9004 15.012C30.7818 15.0125 30.7818 15.0125 30.6609 15.0131C30.3954 15.0139 30.1299 15.0132 29.8644 15.0126C29.6744 15.0128 29.4843 15.0132 29.2942 15.0137C28.7774 15.0147 28.2606 15.0143 27.7438 15.0136C27.2034 15.0131 26.6631 15.0136 26.1228 15.0139C25.2151 15.0143 24.3075 15.0138 23.3999 15.0128C22.3501 15.0116 21.3003 15.012 20.2505 15.0132C19.3499 15.0142 18.4493 15.0143 17.5486 15.0137C17.0104 15.0134 16.4722 15.0133 15.934 15.0141C15.4279 15.0147 14.9219 15.0143 14.4158 15.013C14.2299 15.0127 14.0441 15.0128 13.8582 15.0133C13.6047 15.0139 13.3513 15.0131 13.0978 15.012C12.9559 15.0119 12.814 15.0119 12.6677 15.0118C12.3337 14.9859 12.1499 14.95 11.875 14.7655C11.6232 14.413 11.6043 14.0961 11.6562 13.6717C12.0778 13.0394 12.3275 13.0018 13.0659 13.0001Z" fill="white"/>
<path d="M8.48659 29.8027C8.58623 29.8019 8.68587 29.8012 8.78853 29.8004C9.11787 29.7984 9.44711 29.7997 9.77645 29.8012C10.0053 29.8009 10.2341 29.8005 10.463 29.7999C10.9425 29.7993 11.4221 29.8002 11.9017 29.8023C12.5167 29.8047 13.1316 29.8033 13.7465 29.8007C14.2191 29.7991 14.6916 29.7996 15.1641 29.8007C15.3909 29.801 15.6176 29.8007 15.8444 29.7997C16.1613 29.7986 16.478 29.8002 16.7948 29.8027C16.8887 29.8018 16.9826 29.8009 17.0793 29.8C17.7143 29.8091 17.7143 29.8091 18.0558 30.0649C18.2485 30.339 18.3119 30.5088 18.3282 30.8437C18.2207 31.2198 18.0881 31.4733 17.7813 31.7187C17.3659 31.8571 16.9757 31.8451 16.5428 31.8457C16.45 31.8462 16.3571 31.8468 16.2614 31.8473C15.9538 31.8489 15.6463 31.8497 15.3388 31.8503C15.125 31.8509 14.9113 31.8515 14.6975 31.8521C14.2491 31.8533 13.8007 31.8539 13.3523 31.8543C12.7781 31.8549 12.204 31.8575 11.6299 31.8607C11.1883 31.8627 10.7466 31.8633 10.3049 31.8634C10.0933 31.8638 9.88169 31.8646 9.67007 31.8661C9.37371 31.8679 9.07741 31.8677 8.78104 31.867C8.69392 31.868 8.60679 31.869 8.51702 31.8701C7.98988 31.8661 7.6289 31.7911 7.17195 31.4999C6.97281 31.1795 6.9515 30.9948 6.96688 30.6181C7.21214 29.7947 7.73461 29.7956 8.48659 29.8027Z" fill="white"/>
<path d="M16.25 41.5627C16.5713 41.7883 16.5713 41.7883 16.7969 42.1096C16.8709 42.562 16.8481 42.7877 16.6159 43.1843C16.3342 43.5656 16.0294 43.8929 15.6937 44.2262C15.6304 44.2898 15.567 44.3534 15.5017 44.4189C15.3683 44.5524 15.2346 44.6857 15.1007 44.8187C14.8971 45.0211 14.6946 45.2247 14.4923 45.4285C14.3619 45.5587 14.2315 45.6889 14.101 45.819C14.0411 45.8792 13.9813 45.9395 13.9196 46.0016C13.3518 46.5627 12.793 47.0378 11.9639 47.0657C11.8856 47.0698 11.8074 47.0738 11.7267 47.0781C10.7817 46.9259 10.1837 46.2794 9.54395 45.6233C9.45674 45.5369 9.36954 45.4504 9.27969 45.3614C8.85414 44.9312 8.47608 44.5486 8.26562 43.969C8.27361 43.5698 8.32536 43.3783 8.56641 43.0598C8.84804 42.8486 9.00845 42.783 9.35937 42.7659C9.80648 42.9035 10.0652 43.1045 10.3903 43.4366C10.4774 43.5248 10.5644 43.6129 10.6541 43.7037C10.7435 43.7957 10.8328 43.8878 10.9248 43.9827C11.0162 44.0756 11.1077 44.1685 11.2019 44.2642C11.427 44.4932 11.6513 44.7229 11.875 44.9534C12.6295 44.337 13.3037 43.6426 13.9873 42.9504C14.2235 42.7113 14.4601 42.4725 14.697 42.2339C14.7778 42.1518 14.7778 42.1518 14.8603 42.0679C15.3277 41.5971 15.5738 41.494 16.25 41.5627Z" fill="white"/>
<path d="M30.7101 25.137C30.9242 25.1349 30.9242 25.1349 31.1427 25.1328C31.2993 25.1319 31.4559 25.1311 31.6125 25.1303C31.6913 25.1299 31.77 25.1294 31.8512 25.129C32.2681 25.1267 32.685 25.1251 33.1019 25.1241C33.5323 25.1229 33.9625 25.1191 34.3928 25.1148C34.724 25.1119 35.0551 25.111 35.3862 25.1106C35.5448 25.1101 35.7034 25.1088 35.862 25.1068C36.0843 25.1041 36.3065 25.1045 36.5288 25.105C36.7183 25.104 36.7183 25.104 36.9117 25.103C37.3254 25.1683 37.5053 25.2975 37.7969 25.5939C37.9226 26.0258 37.9535 26.2534 37.7696 26.6671C37.5782 26.9064 37.5782 26.9064 37.25 27.1251C36.9402 27.1544 36.9402 27.1544 36.5588 27.1569C36.4161 27.1583 36.2733 27.1597 36.1263 27.1611C35.9702 27.1615 35.8142 27.1617 35.6581 27.1619C35.4981 27.1626 35.338 27.1633 35.1779 27.1641C34.8423 27.1654 34.5067 27.1658 34.1711 27.1657C33.7417 27.1656 33.3123 27.1686 32.8828 27.1724C32.5522 27.1748 32.2215 27.1753 31.8908 27.1752C31.7325 27.1754 31.5743 27.1764 31.416 27.1781C31.1943 27.1802 30.9725 27.1793 30.7508 27.1783C30.6248 27.1786 30.4988 27.1789 30.3689 27.1792C29.9594 27.1136 29.7786 26.9741 29.4844 26.6876C29.3284 26.3756 29.3411 26.1588 29.375 25.8126C29.7756 25.2118 30.0086 25.143 30.7101 25.137Z" fill="white"/>
<path d="M21.3516 29.7902C21.4576 29.789 21.4576 29.789 21.5658 29.7878C21.7982 29.786 22.0303 29.7881 22.2627 29.7904C22.4249 29.7903 22.5871 29.7901 22.7493 29.7896C23.0888 29.7893 23.4282 29.7909 23.7676 29.7939C24.202 29.7976 24.6362 29.797 25.0706 29.7949C25.4054 29.7938 25.7402 29.7948 26.075 29.7964C26.2351 29.797 26.3952 29.7969 26.5554 29.7962C26.7795 29.7956 27.0034 29.7979 27.2275 29.8009C27.3548 29.8015 27.4821 29.8022 27.6133 29.8029C28.0237 29.8708 28.2076 30.0065 28.5005 30.2967C28.5956 30.6322 28.5693 30.9406 28.5005 31.2811C28.26 31.6127 28.1232 31.6985 27.7349 31.828C27.518 31.8388 27.3009 31.8431 27.0838 31.8438C26.9498 31.8445 26.8158 31.8452 26.6778 31.846C26.5314 31.8461 26.385 31.8463 26.2386 31.8463C26.0884 31.8467 25.9381 31.847 25.7879 31.8474C25.4729 31.8481 25.1579 31.8483 24.8429 31.8482C24.4399 31.8482 24.037 31.8497 23.634 31.8516C23.3236 31.8528 23.0132 31.853 22.7028 31.853C22.5543 31.8531 22.4058 31.8536 22.2573 31.8544C22.0492 31.8555 21.8411 31.855 21.633 31.8545C21.4556 31.8548 21.4556 31.8548 21.2746 31.855C20.8651 31.8205 20.5557 31.7017 20.2085 31.4862C20.0364 31.2145 20.0286 30.9557 20.0137 30.6394C20.2014 29.9652 20.7143 29.7907 21.3516 29.7902Z" fill="white"/>
</g>
<defs>
<clipPath id="clip0_2471_7524">
<rect width="56" height="56" fill="white" transform="translate(0.5)"/>
</clipPath>
</defs>
</svg>
